#tb 0: 1/25
0,          0,          0,        1,   152064, 0x551c2cb9
0,          1,          1,        1,   152064, 0xe3851051
0,          2,          2,        1,   152064, 0xdfedad09
0,          3,          3,        1,   152064, 0x519d4808
0,          4,          4,        1,   152064, 0x2b9c4033
0,          5,          5,        1,   152064, 0x5bf2f424
0,          6,          6,        1,   152064, 0x8e8198cc
0,          7,          7,        1,   152064, 0xfc12bc28
0,          8,          8,        1,   152064, 0xffcac948
0,          9,          9,        1,   152064, 0x0b2aaccc
0,         10,         10,        1,   152064, 0xd5b6d717
0,         11,         11,        1,   152064, 0x0159a097
0,         12,         12,        1,   152064, 0x0db26ef5
0,         13,         13,        1,   152064, 0x87724490
0,         14,         14,        1,   152064, 0xb65fe715
0,         15,         15,        1,   152064, 0x1d7264b4
0,         16,         16,        1,   152064, 0xe3367e31
0,         17,         17,        1,   152064, 0x756d5f5c
0,         18,         18,        1,   152064, 0x182b8835
0,         19,         19,        1,   152064, 0xf315fcb7
0,         20,         20,        1,   152064, 0x3e671758
0,         21,         21,        1,   152064, 0x9828452f
0,         22,         22,        1,   152064, 0x475e3fd4
0,         23,         23,        1,   152064, 0xfdd886f3
0,         24,         24,        1,   152064, 0xc0391253
0,         25,         25,        1,   152064, 0x4757d0d3
0,         26,         26,        1,   152064, 0xd098039f
0,         27,         27,        1,   152064, 0x091d5698
0,         28,         28,        1,   152064, 0x1f6d5d07
0,         29,         29,        1,   152064, 0x202a0756
0,         30,         30,        1,   152064, 0x8fe2f52d
0,         31,         31,        1,   152064, 0xfc302e24
0,         32,         32,        1,   152064, 0x6aa951c8
0,         33,         33,        1,   152064, 0x16c1bce8
0,         34,         34,        1,   152064, 0xdfe1837b
0,         35,         35,        1,   152064, 0x0e2dbb98
0,         36,         36,        1,   152064, 0xae009fbd
0,         37,         37,        1,   152064, 0x2641afc8
0,         38,         38,        1,   152064, 0x5d9c1190
0,         39,         39,        1,   152064, 0x6542fb66
0,         40,         40,        1,   152064, 0xe090f4da
0,         41,         41,        1,   152064, 0x86c5246b
0,         42,         42,        1,   152064, 0x34f63122
0,         43,         43,        1,   152064, 0x3e468919
0,         44,         44,        1,   152064, 0x815c694d
0,         45,         45,        1,   152064, 0xd4e1e969
0,         46,         46,        1,   152064, 0xebbddb8b
0,         47,         47,        1,   152064, 0x0c2d5c36
0,         48,         48,        1,   152064, 0x991047ce
0,         49,         49,        1,   152064, 0x615d743b
